<?xml version="1.0" encoding="UTF-8" standalone="no"?>
<svg width="155px" height="155px" viewBox="0 0 155 155" version="1.1" xmlns="http://www.w3.org/2000/svg" xmlns:xlink="http://www.w3.org/1999/xlink">
    <!-- Generator: Sketch 43.2 (39069) - http://www.bohemiancoding.com/sketch -->
    <title>Artboard</title>
    <desc>Created with Sketch.</desc>
    <defs></defs>
    <g id="Page-1" stroke="none" stroke-width="1" fill="none" fill-rule="evenodd">
        <g id="Artboard" fill="#FBFBFB">
            <g id="Page-1" transform="translate(17.000000, 17.000000)">
                <path d="M59.95,0 C60.78215,3.41201667 62.1192,8.7956 63.25,13.75 C64.3654,18.6371167 64.7757,23.9415 66.55,27.1333333 C67.2459333,28.3853167 68.4561167,29.5511333 70.2166667,29.3333333 C70.7611667,27.7495167 68.0573667,27.2466333 69.1166667,25.1166667 C73.8547333,22.3309167 76.0081667,30.8132 72.4166667,32.2666667 C69.7447667,33.3479667 66.2911333,31.5381 64.9,30.0666667 C62.3989667,27.4211667 61.3515833,23.1458333 60.3166667,19.4333333 C58.9952,22.7465333 58.5299,26.2885333 56.4666667,28.9666667 C55.14465,30.6826667 52.16145,32.8241833 49.3166667,32.6333333 C47.2651667,32.4958333 45.5972,30.9001 45.65,28.6 C45.71985,25.5520833 51.6259333,22.3835333 51.5166667,27.3166667 C51.2460667,28.2071167 49.5953333,27.7174333 49.5,28.7833333 C50.9659333,30.4811833 53.4952,27.7795833 54.0833333,26.5833333 C54.8544333,25.0143667 55.2181667,22.31185 55.7333333,19.9833333 C57.11145,13.7542167 58.6795,6.08281667 59.95,0 Z" id="Fill-1"></path>
                <path d="M60.3166667,24.2 C61.5219,26.2945833 62.45085,28.6658167 63.4333333,30.9833333 C61.4362833,30.8414333 59.3618667,30.7770833 57.3833333,30.6166667 C58.2857,28.4023667 59.4322667,26.4322667 60.3166667,24.2" id="Fill-3"></path>
                <path d="M59.4,47.85 C58.73615,48.1638667 57.9018,48.3074167 56.8333333,48.2166667 C56.9132667,45.5557667 57.1798333,38.6197167 55.55,37.4 C53.84665,36.1252833 51.1809833,37.6784833 49.8666667,38.3166667 C48.4817667,38.9891333 45.9063,40.1192 45.8333333,41.6166667 C45.71655,44.0122833 52.6467333,47.9416667 50.4166667,53.1666667 C48.54795,57.5452167 42.9832333,56.9877 37.0333333,56.4666667 C36.0400333,57.4913167 35.9630333,60.4055833 33.9166667,59.7666667 C32.6373667,58.212 33.6653167,54.4492667 34.65,53.35 C37.3792833,52.635 40.5612167,54.91695 44,54.45 C45.6721833,54.22285 47.6589667,53.0225667 47.85,51.3333333 C48.2557167,47.74715 41.9543667,44.69135 42.1666667,41.0666667 C42.3965667,37.1405833 52.5394833,33.95975 56.2833333,33.3666667 C58.4950667,33.0163167 59.2031,38.10455 59.4,39.6 C59.7934333,42.5888833 59.97805,45.1925833 59.4,47.85" id="Fill-5"></path>
                <path d="M85.9833333,53.35 C87.4434,54.2758333 87.85535,57.9907167 87.0833333,59.95 C84.7869,60.0464333 84.7383167,57.8950167 83.9666667,56.4666667 C78.4021333,57.1006333 70.66345,57.4836167 70.0333333,51.7 C69.88905,50.3748667 70.2557167,48.9085667 70.7666667,47.85 C71.8092833,45.6894167 75.0643667,43.3774 74.9833333,41.6166667 C74.9026667,39.864 67.5046167,35.3628 65.2666667,37.5833333 C63.1990333,39.6348333 64.21965,44.5974833 63.9833333,48.2166667 C62.9148667,48.3074167 62.0805167,48.1638667 61.4166667,47.85 C60.9667667,44.30415 60.9114,34.1108167 63.9833333,33.3666667 C64.02935,33.3554833 64.11955,33.3606167 64.1666667,33.3666667 C67.07965,33.74305 69.5625333,34.5697 72.6,35.9333333 C74.8999167,36.9658667 78.4340333,38.90315 78.65,40.8833333 C79.04435,44.5001333 72.7023,47.5493333 72.9666667,51.15 C73.0926167,52.8667333 75.0236667,54.1674833 76.6333333,54.45 C80.0411333,55.0482167 83.3492,52.6419667 85.9833333,53.35" id="Fill-7"></path>
                <path d="M34.8333333,35.3833333 C36.4585833,35.4706 38.2644167,36.9622 40.15,37.4 C39.1961167,38.4627833 38.3043833,39.5877167 37.0333333,40.3333333 C36.41,38.5733333 35.6125,36.9875 34.8333333,35.3833333" id="Fill-9"></path>
                <path d="M85.6166667,35.2 C85.5132667,36.8089333 83.9268833,38.5201667 83.4166667,40.3333333 C82.3054833,39.5501333 81.5871833,38.3738667 80.4833333,37.5833333 C81.9602667,36.55465 84.0150667,36.1040167 85.6166667,35.2" id="Fill-11"></path>
                <path d="M53.7166667,42.5333333 C52.6252833,43.4586167 51.3175667,44.1675667 49.8666667,44.7333333 C49.2719333,43.3114 48.5420833,42.0245833 47.6666667,40.8833333 C48.6399833,39.9622667 50.1185667,39.5464667 51.15,38.6833333 C52.305,39.6672833 52.6472833,41.46395 53.7166667,42.5333333" id="Fill-13"></path>
                <path d="M69.4833333,38.6833333 C70.8821667,39.1178333 71.7751833,40.0583333 73.15,40.5166667 C72.82495,42.2693333 71.5916667,43.11395 71.1333333,44.7333333 C69.58985,44.3212 68.6532,43.3024167 67.2833333,42.7166667 C68.02345,41.3790667 68.91225,40.1899667 69.4833333,38.6833333" id="Fill-15"></path>
                <path d="M37.2166667,52.4333333 C36.3491333,52.44525 35.4121167,52.5268333 35.2,51.8833333 C36.0462667,48.63045 38.8945333,45.80345 40.8833333,43.0833333 C44.8259167,44.6545 37.9881333,50.4155667 37.2166667,52.4333333" id="Fill-17"></path>
                <path d="M85.6166667,51.7 C85.5888,52.5888 84.50365,52.4203167 83.6,52.4333333 C82.9004,51.6215333 81.91535,50.1919 80.85,48.5833333 C79.60535,46.7038 77.2211,44.48675 79.5666667,43.0833333 C82.0977667,45.3190833 84.4600167,48.7006667 85.6166667,51.7" id="Fill-19"></path>
                <path d="M54.2666667,43.8166667 C54.7141833,44.2247667 55.1481333,44.64625 55.1833333,45.4666667 C53.91045,46.0271167 52.8141167,46.7641167 51.5166667,47.3 C51.2409333,46.7811667 50.7752667,46.45245 50.7833333,45.65 C51.9231167,45.0175 53.2291833,44.5514667 54.2666667,43.8166667" id="Fill-21"></path>
                <path d="M66.55,43.8166667 C67.7992333,44.4007667 68.9751333,45.0583833 70.2166667,45.65 C70.2247333,46.45245 69.7590667,46.7811667 69.4833333,47.3 C68.15325,46.7355167 67.0583833,45.936 65.6333333,45.4666667 C65.86635,44.8440667 66.28435,44.40645 66.55,43.8166667" id="Fill-23"></path>
                <path d="M19.4333333,60.1333333 C23.7502833,61.5715833 29.3404833,63.0837167 31.5333333,66.7333333 C32.37135,68.12795 32.95105,70.7254167 32.2666667,72.4166667 C30.9492333,75.6719333 23.0794667,74.4362667 24.75,69.4833333 C26.35655,68.0669 27.7038667,69.8564167 28.9666667,70.4 C29.9174333,65.8731333 24.3351167,65.6450667 20.1666667,64.7166667 C13.9307667,63.3277333 6.26651667,61.2326 0,60.1333333 C4.13013333,58.9359833 9.32066667,58.0814667 14.85,56.8333333 C19.4989667,55.7839333 26.3239167,55.2660167 28.6,52.4333333 C29.1239667,51.7812167 30.0105667,50.3202333 28.9666667,49.5 C27.7288,49.4844167 28.2291167,51.2070167 27.3166667,51.5166667 C23.90795,52.0991167 24.5705167,48.4300667 25.85,46.9333333 C28.04395,44.3670333 32.3499,46.1396833 32.6333333,49.1333333 C32.90815,52.0358667 30.6854167,55.1244833 28.9666667,56.4666667 C26.3325333,58.52385 23.0076,59.1259167 19.4333333,60.1333333" id="Fill-25"></path>
                <path d="M96.0666667,50.7833333 C95.53335,51.2889667 94.8495167,51.6439 93.6833333,51.5166667 C92.7928833,51.2460667 93.2823833,49.5953333 92.2166667,49.5 C90.47005,51.1676 93.43455,53.6713833 94.7833333,54.2666667 C96.4907167,55.0199833 99.0792,55.2178 101.383333,55.7333333 C107.453683,57.0914667 114.975667,58.77575 121,59.95 C116.999667,61.0685167 112.233917,61.96135 107.433333,63.0666667 C102.839183,64.1245 97.6041,64.6998 94.2333333,66.3666667 C92.8640167,67.0437167 91.1804667,68.3387833 91.85,70.4 C93.34435,70.0459833 94.5252,67.9792667 96.25,69.4833333 C98.2133167,74.1902333 89.23915,76.1674833 88.55,71.8666667 C87.3425667,64.3305667 95.54435,61.9472333 101.566667,60.3166667 C96.0857333,58.6972833 87.9528833,56.2184333 88.3666667,49.3166667 C88.6785167,44.1140333 97.1949,44.7986 96.0666667,50.7833333" id="Fill-27"></path>
                <path d="M56.4666667,48.0333333 C55.01155,48.4727833 53.9925833,49.3482 52.6166667,49.8666667 C52.5061167,49.1828333 51.92715,48.9672333 51.8833333,48.2166667 C53.4887833,47.7158 56.0151167,45.0090667 56.4666667,48.0333333" id="Fill-29"></path>
                <path d="M65.2666667,46.3833333 C66.6735667,46.871 67.8120667,47.6268833 69.1166667,48.2166667 C69.0228,48.9171833 68.51405,49.2028167 68.3833333,49.8666667 C67.0374833,49.31795 65.9541667,48.5068833 64.5333333,48.0333333 C64.57715,47.2827667 65.1561167,47.0671667 65.2666667,46.3833333" id="Fill-31"></path>
                <path d="M43.6333333,52.6166667 C45.7180167,52.21535 45.63955,47.5907667 42.35,48.7666667 C39.9058,49.6404333 41.36,53.0542833 43.6333333,52.6166667 M42.1666667,47.6666667 C47.5295333,46.1112667 46.8403833,54.2969167 42.1666667,53.1666667 C40.2959333,52.7143833 39.1501,48.5415333 42.1666667,47.6666667" id="Fill-33"></path>
                <path d="M75.7166667,51.15 C76.2124,53.5538667 80.3209,53.0152333 79.75,50.05 C79.5685,49.1065667 78.82325,48.15525 77,48.7666667 C75.9163167,49.1300333 75.3853833,49.5438167 75.7166667,51.15 M76.8166667,47.6666667 C80.5993833,46.6609 82.2649667,52.2925333 78.65,53.1666667 C75.1325667,54.0173333 73.20115,48.6278833 76.8166667,47.6666667" id="Fill-35"></path>
                <path d="M43.2666667,51.5166667 C45.5555833,50.3748667 41.9244833,47.88795 41.9833333,50.7833333 C42.3049,51.1338667 42.66955,51.4415 43.2666667,51.5166667 M42.35,48.7666667 C45.63955,47.5907667 45.7180167,52.21535 43.6333333,52.6166667 C41.36,53.0542833 39.9058,49.6404333 42.35,48.7666667" id="Fill-37"></path>
                <path d="M78.2833333,51.5166667 C78.32385,51.37385 78.4369667,51.30345 78.65,51.3333333 C78.7607333,50.89425 78.9136333,50.4969667 78.8333333,49.8666667 C77.1789333,48.2945833 75.7659833,51.7878167 78.2833333,51.5166667 M77,48.7666667 C78.82325,48.15525 79.5685,49.1065667 79.75,50.05 C80.3209,53.0152333 76.2124,53.5538667 75.7166667,51.15 C75.3853833,49.5438167 75.9163167,49.1300333 77,48.7666667" id="Fill-39"></path>
                <path d="M41.9833333,50.7833333 C41.9244833,47.88795 45.5555833,50.3748667 43.2666667,51.5166667 C42.66955,51.4415 42.3049,51.1338667 41.9833333,50.7833333" id="Fill-41"></path>
                <path d="M78.8333333,49.8666667 C78.9136333,50.4969667 78.7607333,50.89425 78.65,51.3333333 C78.4369667,51.30345 78.32385,51.37385 78.2833333,51.5166667 C75.7659833,51.7878167 77.1789333,48.2945833 78.8333333,49.8666667" id="Fill-43"></path>
                <path d="M71.1333333,58.1166667 L74.4333333,58.1166667 L74.4333333,59.95 L68.5666667,59.95 C67.7642167,55.9656167 65.85095,51.9684 61.6,51.5166667 C57.2045833,51.0495333 54.2160667,53.5709167 52.9833333,57.2 C56.0030167,56.0640667 58.5735333,54.47915 61.6,53.35 C62.7496833,55.8669833 64.4182,57.8651333 65.6333333,60.3166667 C63.9910333,60.8881167 62.38265,62.4251833 60.8666667,62.5166667 C60.7592333,62.13515 60.4813,61.9241333 60.3166667,61.6 C60.7957167,60.5513333 62.26275,60.49065 63.0666667,59.7666667 C62.3767833,58.4398833 61.6408833,57.1593 60.6833333,56.1 C56.5887667,58.0554333 53.35,60.8664833 46.3833333,59.95 L46.3833333,58.1166667 L49.5,58.1166667 C50.6430833,52.3405667 55.5727333,48.9122333 62.5166667,49.6833333 C67.353,50.2203167 69.7638333,54.05675 71.1333333,58.1166667" id="Fill-45"></path>
                <path d="M30.25,63.0666667 C28.0336833,62.1663167 26.1583667,60.9249667 23.8333333,60.1333333 C25.7869333,58.9092167 28.22105,58.1656167 30.25,57.0166667 C31.0181667,58.3581167 30.1805167,61.2074833 30.25,63.0666667" id="Fill-47"></path>
                <path d="M90.3833333,57.2 C92.7373333,58.20705 94.9780333,59.3275833 97.35,60.3166667 C95.25725,61.5849667 92.686,62.37495 90.5666667,63.6166667 C90.1398667,61.8434667 90.5048833,59.27845 90.3833333,57.2" id="Fill-49"></path>
                <polygon id="Fill-51" points="77.1833333 62.3333333 78.65 62.3333333 78.65 58.1166667 77.1833333 58.1166667"></polygon>
                <polygon id="Fill-53" points="79.3833333 62.3333333 83.6 62.3333333 83.6 58.1166667 79.3833333 58.1166667"></polygon>
                <polygon id="Fill-54" points="37.2166667 62.5166667 41.25 62.5166667 41.25 58.3 37.2166667 58.3"></polygon>
                <path d="M42.1666667,58.3 C42.6946667,58.3218167 43.3667667,58.1999 43.6333333,58.4833333 C43.5292,59.8458667 43.8529667,61.6363 43.45,62.7 L42.1666667,62.7 L42.1666667,58.3 Z" id="Fill-55"></path>
                <path d="M60.3166667,59.5833333 C59.1924667,59.86475 58.5075333,60.58525 57.3833333,60.8666667 C57.96505,62.3626667 59.0016167,63.404 59.5833333,64.9 C64.05685,63.18345 66.7509333,59.7683167 74.4333333,60.8666667 L74.4333333,62.7 L71.3166667,62.7 C70.06945,67.9066667 65.8524167,71.3823 59.7666667,71.3166667 C54.2892167,71.2576333 50.90965,67.7666 49.6833333,63.0666667 L46.2,63.0666667 L46.2,60.8666667 L52.0666667,60.8666667 C52.9008333,64.6950333 54.6634,68.6997667 58.6666667,69.3 C63.3105,69.9964833 66.3290833,67.37005 67.65,63.8 C65.0862667,64.4757667 62.0851,66.3015833 59.4,67.4666667 C57.6660333,65.4118667 56.39755,62.8912167 55,60.5 C56.78365,60.2963167 59.4462,56.7614667 60.3166667,59.5833333" id="Fill-56"></path>
                <path d="M36.85,64.5333333 C42.4425833,64.1054333 49.8309167,63.5152833 50.7833333,68.9333333 C51.2810833,71.7649167 49.7361333,73.8749 48.4,75.7166667 C47.4972667,76.96095 45.7810833,78.2494167 45.8333333,79.3833333 C45.9196833,81.25865 52.8055,85.26925 55.3666667,83.6 C57.3532667,82.3051167 56.694,75.7296833 57.0166667,72.7833333 C57.8400167,72.6933167 58.3903833,72.8762833 59.0333333,72.9666667 C60.5416167,77.0614167 59.5466667,85.0949 57.0166667,87.6333333 C53.7027333,87.3004 51.2686167,86.3503667 48.4,85.0666667 C46.3211833,84.1364333 42.3716333,82.5436333 42.1666667,80.1166667 C42.02275,78.4120333 43.75745,76.3315667 44.9166667,74.8 C45.9402167,73.44755 48.0095,71.8466833 47.85,69.85 C47.73615,68.42495 46.0335333,67.0899167 44.9166667,66.7333333 C41.5570833,65.6608333 38.4341833,68.1516 34.65,67.8333333 C33.6193,66.4796 33.05885,63.6815667 33.55,61.4166667 C35.4684,60.2710167 36.2814833,63.1346833 36.85,64.5333333" id="Fill-57"></path>
                <path d="M86.9,61.05 C88.17875,62.7966167 87.1368667,66.5470667 86.1666667,67.8333333 C83.0272667,68.0683667 80.04205,66.2596 77.1833333,66.55 C75.3995,66.7311333 73.20115,67.9963167 72.9666667,69.6666667 C72.4777167,73.14835 78.7728333,76.4316667 78.65,79.9333333 C78.56255,82.4263 74.6317,84.1575167 72.6,85.0666667 C71.4750667,85.5701 69.9262667,86.03815 68.3833333,86.5333333 C67.2882833,86.8847833 65.2179,87.9332667 63.9833333,87.6333333 C60.9134167,86.8879 60.75685,76.3506333 61.6,73.15 C62.1377167,72.8321 62.8789333,72.7178833 63.8,72.7833333 C64.3987667,75.2170833 63.16475,82.02205 65.2666667,83.6 C68.1409667,85.7578333 74.1528333,81.1217 74.9833333,79.5666667 C73.84025,75.6851333 69.6017667,74.3028 70.0333333,69.4833333 C70.5287,63.9499667 77.8902667,63.7970667 83.7833333,64.5333333 C84.8780167,63.4280167 84.6618667,61.0118667 86.9,61.05" id="Fill-58"></path>
                <path d="M42.35,72.4166667 C45.6716333,73.3868667 46.2592167,67.5123167 42.5333333,68.5666667 C40.3525833,69.1835833 41.16255,72.0698 42.35,72.4166667 M42.35,68.0166667 C44.6937333,67.4399 45.7832833,68.6673167 46.0166667,70.0333333 C46.7657667,74.4172 40.3964,74.77525 40.15,70.95 C40.0379833,69.212 40.8804,68.3782 42.35,68.0166667" id="Fill-59"></path>
                <path d="M79.75,70.7666667 C79.9476333,69.0149167 78.65495,68.0031 77,68.5666667 C72.8300833,69.9865833 79.2399667,75.2874833 79.75,70.7666667 M76.8166667,68.0166667 C81.0329667,66.8393 81.78665,72.7483167 78.65,73.5166667 C74.96115,74.4205 73.3294833,68.9905333 76.8166667,68.0166667" id="Fill-60"></path>
                <path d="M42.5333333,71.5 C46.95075,71.0378167 40.7704,67.4820667 42.5333333,71.5 M42.5333333,68.5666667 C46.2592167,67.5123167 45.6716333,73.3868667 42.35,72.4166667 C41.16255,72.0698 40.3525833,69.1835833 42.5333333,68.5666667" id="Fill-61"></path>
                <path d="M78.8333333,70.0333333 C74.8876333,67.8063833 78.2584,74.2520167 78.8333333,70.0333333 M77,68.5666667 C78.65495,68.0031 79.9476333,69.0149167 79.75,70.7666667 C79.2399667,75.2874833 72.8300833,69.9865833 77,68.5666667" id="Fill-62"></path>
                <path d="M37.2166667,68.5666667 C37.9028833,69.3927667 38.9035167,70.8312 39.9666667,72.4166667 C41.20545,74.2639333 43.60785,76.5908 41.25,77.9166667 C38.5584833,75.6581833 36.74055,72.5263 35.0166667,69.3 C35.3257667,68.6313833 36.1342667,68.4619833 37.2166667,68.5666667" id="Fill-63"></path>
                <path d="M85.6166667,69.1166667 C84.59825,72.3195 82.1142667,75.63325 79.5666667,77.9166667 C79.3015667,77.6227833 78.56145,77.2574 78.4666667,76.6333333 C78.3770167,76.0420833 82.6475833,68.8455167 83.7833333,68.5666667 C84.6486667,68.3541833 85.4118833,68.6709833 85.6166667,69.1166667" id="Fill-64"></path>
                <path d="M42.5333333,71.5 C40.7704,67.4820667 46.95075,71.0378167 42.5333333,71.5" id="Fill-65"></path>
                <path d="M78.8333333,70.0333333 C78.2584,74.2520167 74.8876333,67.8063833 78.8333333,70.0333333" id="Fill-66"></path>
                <path d="M52.0666667,71.6833333 C53.4970333,72.14735 54.5359833,73.0029667 55.9166667,73.5166667 C55.8020833,74.19665 55.4013167,74.5900833 55.1833333,75.1666667 C53.7329833,74.72245 52.7338167,73.8272333 51.3333333,73.3333333 C51.5513167,72.75675 51.9520833,72.3633167 52.0666667,71.6833333" id="Fill-67"></path>
                <path d="M69.1166667,73.3333333 C67.7865833,73.8976333 66.6917167,74.69715 65.2666667,75.1666667 C65.2433833,74.3953833 64.5566167,74.28795 64.5333333,73.5166667 C66.3028667,73.2191167 68.6150667,70.1888 69.1166667,73.3333333" id="Fill-68"></path>
                <path d="M50.9666667,74.25 C52.4579,74.65315 53.3254333,75.6801833 54.8166667,76.0833333 C54.5986833,76.6599167 54.1979167,77.05335 54.0833333,77.7333333 C52.6582833,77.2638167 51.5634167,76.4643 50.2333333,75.9 C50.3479167,75.2200167 50.7486833,74.8265833 50.9666667,74.25" id="Fill-69"></path>
                <path d="M70.2166667,75.9 C69.0768833,76.5325 67.7708167,76.9985333 66.7333333,77.7333333 C66.1681167,77.4429333 66.0902,76.6652333 65.6333333,76.2666667 C67.1012833,75.75975 69.87035,72.7312667 70.2166667,75.9" id="Fill-70"></path>
                <path d="M49.5,76.8166667 C50.8511667,77.3600667 51.95685,78.1487667 53.1666667,78.8333333 C52.5314167,80.2758 51.48825,81.3105333 50.9666667,82.8666667 C49.5878167,82.3511333 48.5508833,81.4935 47.3,80.85 C47.8467,79.3189833 48.79545,78.1898333 49.5,76.8166667" id="Fill-71"></path>
                <path d="M73.3333333,80.6666667 C72.3257333,81.55345 70.90545,82.0277333 69.85,82.8666667 C68.6629167,81.9148 68.3884667,80.0504833 67.2833333,79.0166667 C68.4223833,78.1392333 69.6279833,77.3279833 71.1333333,76.8166667 C71.7280667,78.2386 72.4581,79.5252333 73.3333333,80.6666667" id="Fill-72"></path>
                <path d="M85.6166667,77.1833333 C89.1590333,82.9909667 92.2254667,89.2745333 95.5166667,95.3333333 C89.4598833,92.3457333 83.5506833,89.2103667 77.3666667,86.35 C77.8576333,85.2520167 78.9042833,84.7099 79.5666667,83.7833333 C82.3086,84.7693 84.8079833,85.9976333 87.45,87.0833333 C86.6869667,84.7289667 84.9302667,81.7813333 83.6,79.3833333 C84.1632,78.5409167 85.0534667,78.02575 85.6166667,77.1833333" id="Fill-73"></path>
                <path d="M33.7333333,77.3666667 C34.7193,78.0305167 35.7624667,78.6375333 36.3,79.75 C35.1255667,82.2424167 34.0721333,84.85565 33,87.45 C35.6368833,86.2979333 38.1608333,85.0329333 40.5166667,83.6 C41.45735,84.1870333 42.39015,84.78195 42.9,85.8 C36.8171833,88.88385 30.9928667,92.2263833 24.9333333,95.3333333 C27.7240333,89.20175 30.9426333,83.4980667 33.7333333,77.3666667" id="Fill-74"></path>
                <path d="M37.0333333,80.3 C38.2583667,81.09145 39.2734833,82.0931833 40.15,83.2333333 C38.1569833,83.7459333 36.7125,84.8068833 34.8333333,85.4333333 C35.5400833,83.6957 36.3524333,82.0634833 37.0333333,80.3" id="Fill-75"></path>
                <path d="M85.8,85.4333333 C84.0467833,84.6811167 82.2911833,83.9311 80.4833333,83.2333333 C81.30265,82.2193167 82.20025,81.2835833 83.05,80.3 C84.403,81.5747167 84.8912167,83.7144 85.8,85.4333333" id="Fill-76"></path>
                <path d="M60.1333333,101.566667 C61.4835833,97.9254833 62.5601167,93.1184833 65.2666667,90.5666667 C66.6931833,89.22155 69.9519333,87.736 72.4166667,88.7333333 C76.0466667,90.2023833 73.8021167,98.6813667 69.1166667,95.8833333 C68.3140333,93.9444 70.0434167,93.37845 70.4,92.0333333 C65.8826667,91.10475 65.65185,96.635 64.7166667,100.833333 C63.327,107.073083 61.2371833,114.735683 60.1333333,121 C59.0876,117.16155 58.2088833,112.543933 57.2,107.983333 C56.1898333,103.416867 55.7080333,98.4371667 54.2666667,94.9666667 C53.6213333,93.4127333 51.5295,90.7492667 49.5,92.0333333 C49.4844167,93.2712 51.2070167,92.7708833 51.5166667,93.6833333 C51.6439,94.8495167 51.2889667,95.53335 50.7833333,96.0666667 C45.2917667,97.5025333 43.7704667,88.9071333 49.1333333,88.3666667 C55.8350833,87.6910833 59.0712833,96.2305667 60.1333333,101.566667" id="Fill-77"></path>
                <path d="M56.8333333,90.75 C58.8635667,90.8587167 60.9447667,90.9164667 62.8833333,91.1166667 C61.9230333,93.2730333 60.7753667,95.2420333 59.95,97.5333333 C58.6963667,95.4869667 57.7881333,93.0950167 56.8333333,90.75" id="Fill-78"></path>
                <path d="M24.75,25.3 C30.52665,27.8956333 36.6131333,31.7702 42.7166667,34.65 C42.9018333,35.5531 41.2971167,36.1302333 40.8833333,37.0333333 C38.25305,35.6913333 35.5378833,34.4344 33,33 C33.9681833,35.7595333 35.1580167,38.2976 36.3,40.8833333 C35.6335833,41.8669167 34.7548667,42.6382 33.7333333,43.2666667 C30.8407,37.1759667 27.8463167,31.1870167 24.75,25.3" id="Fill-79"></path>
                <path d="M95.3333333,25.3 C92.7703333,31.1092833 88.8880667,37.1878833 85.9833333,43.2666667 C85.2008667,43.3310167 84.2607333,42.0896667 83.7833333,41.25 C84.8947,38.5113667 86.39785,36.1643333 87.6333333,33.55 C85.3744833,34.2862667 82.2688167,35.7628333 79.75,36.85 C78.9070333,36.0429667 77.9045667,35.3954333 77.3666667,34.2833333 C83.45755,31.3907 89.4463167,28.3963167 95.3333333,25.3" id="Fill-80"></path>
            </g>
        </g>
    </g>
</svg>